<?xml version="1.0" encoding="utf-8"?>
<!-- Generator: Adobe Illustrator 18.0.0, SVG Export Plug-In . SVG Version: 6.00 Build 0)  -->
<!DOCTYPE svg PUBLIC "-//W3C//DTD SVG 1.0//EN" "http://www.w3.org/TR/2001/REC-SVG-20010904/DTD/svg10.dtd">
<svg version="1.0" id="Layer_1" xmlns="http://www.w3.org/2000/svg" xmlns:xlink="http://www.w3.org/1999/xlink" x="0px" y="0px"
	 viewBox="0 0 296.7 312" enable-background="new 0 0 296.7 312" xml:space="preserve">
<circle fill="none" stroke="#FFFF00" stroke-width="14" stroke-miterlimit="10" cx="174" cy="120.7" r="104"/>
<text transform="matrix(1 0 0 1 21.3492 166.9804)" display="none"><tspan x="0" y="0" display="inline" font-family="'Raleway-Thin'" font-size="55.4437">MAKE</tspan><tspan x="0" y="56" display="inline" font-family="'Raleway-Thin'" font-size="55.4437">BREAK</tspan><tspan x="0" y="112" display="inline" font-family="'Raleway-Thin'" font-size="55.4437">CREATE</tspan></text>
<g>
	<path d="M63.8,167v-36.9l-17.5,29.2h-0.9l-17.5-29.2V167h-1.1v-39.4h0.9l18.1,30.3L64,127.6h0.9V167H63.8z"/>
	<path d="M88.5,127.6h1l17.1,39.4h-1.2l-6.2-14.1H78.7L72.6,167h-1.2L88.5,127.6z M98.8,151.8L89,129.2l-9.9,22.6H98.8z"/>
	<path d="M113.2,167v-39.4h1.1v25.6l25.1-25.6h1.6l-16.8,17.2l17.6,22.2h-1.4l-17-21.4l-9,9.1V167H113.2z"/>
	<path d="M173.5,165.9v1.1h-25.8v-39.4H173v1.1h-24.2v17.6H170v1.1h-21.2v18.5H173.5z"/>
	<path d="M54.9,212.8c0,1.4-0.3,2.7-0.8,3.9c-0.5,1.2-1.2,2.3-2.1,3.2c-0.9,0.9-1.9,1.7-3.1,2.2c-1.2,0.6-2.5,0.8-3.8,0.8H26.8
		v-39.4h17.4c1.4,0,2.6,0.3,3.7,0.9s2.1,1.4,2.8,2.3c0.8,0.9,1.4,2,1.8,3.2c0.4,1.2,0.6,2.4,0.6,3.6c0,2-0.5,3.8-1.5,5.5
		c-1,1.7-2.4,2.9-4.1,3.7c1.1,0.3,2.1,0.8,3,1.5c0.9,0.7,1.7,1.4,2.3,2.3c0.6,0.9,1.1,1.9,1.5,2.9C54.7,210.6,54.9,211.7,54.9,212.8
		z M27.9,184.7v17.9h16c1.2,0,2.3-0.3,3.3-0.8c1-0.5,1.9-1.2,2.6-2.1s1.3-1.8,1.7-2.9c0.4-1.1,0.6-2.1,0.6-3.2
		c0-1.2-0.2-2.3-0.6-3.4c-0.4-1.1-0.9-2-1.6-2.9c-0.7-0.8-1.5-1.5-2.5-2c-1-0.5-2-0.7-3.2-0.7H27.9z M53.8,212.8
		c0-1.2-0.2-2.3-0.6-3.4c-0.4-1.1-1-2.1-1.7-2.9c-0.7-0.8-1.6-1.5-2.6-2c-1-0.5-2.1-0.7-3.3-0.7H27.9v18.2h17.1
		c1.2,0,2.4-0.3,3.4-0.8c1.1-0.5,2-1.2,2.8-2.1c0.8-0.8,1.4-1.8,1.9-2.9C53.6,215,53.8,213.9,53.8,212.8z"/>
	<path d="M63.2,223v-39.4h16c1.6,0,3.1,0.3,4.4,1c1.4,0.7,2.5,1.6,3.5,2.7c1,1.1,1.7,2.4,2.3,3.8c0.6,1.4,0.8,2.9,0.8,4.4
		c0,1.5-0.2,3-0.7,4.4c-0.5,1.4-1.2,2.7-2.1,3.7c-0.9,1.1-1.9,2-3.2,2.7c-1.2,0.7-2.6,1.1-4.1,1.2l10,15.5h-1.3l-10-15.5H64.3V223
		H63.2z M64.3,206.4h15.3c1.5,0,2.8-0.3,4-0.9c1.2-0.6,2.2-1.5,3-2.5c0.8-1,1.5-2.2,1.9-3.5c0.4-1.3,0.7-2.6,0.7-4
		c0-1.4-0.3-2.8-0.8-4c-0.5-1.3-1.2-2.4-2.1-3.4c-0.9-1-2-1.8-3.2-2.4c-1.2-0.6-2.5-0.9-3.9-0.9H64.3V206.4z"/>
	<path d="M124.6,221.9v1.1H98.7v-39.4h25.3v1.1H99.9v17.6h21.2v1.1H99.9v18.5H124.6z"/>
	<path d="M145.7,183.6h1l17.1,39.4h-1.2l-6.2-14.1h-20.6l-6.2,14.1h-1.2L145.7,183.6z M155.9,207.8l-9.8-22.6l-9.9,22.6H155.9z"/>
	<path d="M170.3,223v-39.4h1.1v25.6l25.1-25.6h1.6l-16.8,17.2l17.6,22.2h-1.4l-17-21.4l-9,9.1V223H170.3z"/>
	<path d="M24,259c0-2.4,0.4-4.7,1.2-7c0.8-2.3,2-4.4,3.6-6.3c1.6-1.9,3.5-3.4,5.8-4.5c2.3-1.2,4.9-1.7,7.9-1.7
		c3.5,0,6.5,0.8,8.9,2.4c2.4,1.6,4.2,3.7,5.4,6.2l-1.1,0.3c-0.8-1.4-1.7-2.7-2.7-3.7c-1-1-2.1-1.8-3.3-2.4c-1.2-0.6-2.4-1.1-3.7-1.3
		c-1.3-0.3-2.5-0.4-3.8-0.4c-2.7,0-5.2,0.5-7.3,1.6c-2.1,1.1-4,2.5-5.4,4.3c-1.5,1.8-2.6,3.8-3.4,6c-0.8,2.2-1.1,4.5-1.1,6.7
		c0,2.5,0.5,4.9,1.4,7.2c0.9,2.3,2.1,4.3,3.7,6.1c1.6,1.8,3.4,3.2,5.5,4.2c2.1,1,4.4,1.6,6.8,1.6c1.3,0,2.6-0.2,4-0.5
		c1.4-0.3,2.7-0.8,4-1.5c1.3-0.7,2.5-1.5,3.5-2.6c1.1-1.1,2-2.3,2.8-3.7l1.1,0.3c-0.7,1.5-1.6,2.8-2.7,3.9c-1.1,1.1-2.4,2.1-3.8,2.9
		c-1.4,0.8-2.9,1.4-4.5,1.7c-1.6,0.4-3.1,0.6-4.6,0.6c-2.7,0-5.1-0.6-7.4-1.8c-2.3-1.2-4.2-2.7-5.8-4.6c-1.6-1.9-2.9-4.1-3.8-6.5
		C24.5,264,24,261.5,24,259z"/>
	<path d="M65.5,279v-39.4h16c1.6,0,3.1,0.3,4.4,1c1.4,0.7,2.5,1.6,3.5,2.7c1,1.1,1.7,2.4,2.3,3.8c0.6,1.4,0.8,2.9,0.8,4.4
		c0,1.5-0.2,3-0.7,4.4c-0.5,1.4-1.2,2.7-2.1,3.7c-0.9,1.1-1.9,2-3.2,2.7c-1.2,0.7-2.6,1.1-4.1,1.2l10,15.5h-1.3l-10-15.5H66.6V279
		H65.5z M66.6,262.4h15.3c1.5,0,2.8-0.3,4-0.9c1.2-0.6,2.2-1.5,3-2.5c0.8-1,1.5-2.2,1.9-3.5c0.4-1.3,0.7-2.6,0.7-4
		c0-1.4-0.3-2.8-0.8-4c-0.5-1.3-1.2-2.4-2.1-3.4c-0.9-1-2-1.8-3.2-2.4c-1.2-0.6-2.5-0.9-3.9-0.9H66.6V262.4z"/>
	<path d="M126.9,277.9v1.1h-25.8v-39.4h25.3v1.1h-24.2v17.6h21.2v1.1h-21.2v18.5H126.9z"/>
	<path d="M148,239.6h1l17.1,39.4h-1.2l-6.2-14.1h-20.6L132,279h-1.2L148,239.6z M158.2,263.8l-9.8-22.6l-9.9,22.6H158.2z"/>
	<path d="M195.6,240.7h-15.1V279h-1.1v-38.3h-15.1v-1.1h31.3V240.7z"/>
	<path d="M227.9,277.9v1.1H202v-39.4h25.3v1.1h-24.2v17.6h21.2v1.1h-21.2v18.5H227.9z"/>
</g>
</svg>
