<?xml version="1.0" encoding="utf-8"?>
<!-- Generator: Adobe Illustrator 20.0.0, SVG Export Plug-In . SVG Version: 6.00 Build 0)  -->
<svg version="1.1" id="Layer_1" xmlns="http://www.w3.org/2000/svg" xmlns:xlink="http://www.w3.org/1999/xlink" x="0px" y="0px"
	 viewBox="0 0 264 273" style="enable-background:new 0 0 264 273;" xml:space="preserve">
<style type="text/css">
	.st0{fill:none;stroke:#FFFF00;stroke-width:14;stroke-miterlimit:10;}
</style>
<circle class="st0" cx="150" cy="114.7" r="104"/>
<g>
	<path d="M39.8,161v-36.9l-17.5,29.2h-0.9L3.9,124.1V161H2.8v-39.4h0.9l18.1,30.3L40,121.6h0.9V161H39.8z"/>
	<path d="M64.5,121.6h1L82.6,161h-1.2l-6.2-14.1H54.7L48.6,161h-1.2L64.5,121.6z M74.8,145.8L65,123.2l-9.9,22.6H74.8z"/>
	<path d="M89.2,161v-39.4h1.1v25.6l25.1-25.6h1.6l-16.8,17.2l17.6,22.2h-1.4l-17-21.4l-9,9.1V161H89.2z"/>
	<path d="M149.5,159.9v1.1h-25.8v-39.4H149v1.1h-24.2v17.6H146v1.1h-21.2v18.5L149.5,159.9L149.5,159.9z"/>
	<path d="M30.9,206.8c0,1.4-0.3,2.7-0.8,3.9s-1.2,2.3-2.1,3.2s-1.9,1.7-3.1,2.2c-1.2,0.6-2.5,0.8-3.8,0.8H2.8v-39.4h17.4
		c1.4,0,2.6,0.3,3.7,0.9s2.1,1.4,2.8,2.3c0.8,0.9,1.4,2,1.8,3.2s0.6,2.4,0.6,3.6c0,2-0.5,3.8-1.5,5.5s-2.4,2.9-4.1,3.7
		c1.1,0.3,2.1,0.8,3,1.5s1.7,1.4,2.3,2.3c0.6,0.9,1.1,1.9,1.5,2.9C30.7,204.6,30.9,205.7,30.9,206.8z M3.9,178.7v17.9h16
		c1.2,0,2.3-0.3,3.3-0.8s1.9-1.2,2.6-2.1s1.3-1.8,1.7-2.9c0.4-1.1,0.6-2.1,0.6-3.2c0-1.2-0.2-2.3-0.6-3.4c-0.4-1.1-0.9-2-1.6-2.9
		c-0.7-0.8-1.5-1.5-2.5-2s-2-0.7-3.2-0.7L3.9,178.7L3.9,178.7z M29.8,206.8c0-1.2-0.2-2.3-0.6-3.4c-0.4-1.1-1-2.1-1.7-2.9
		c-0.7-0.8-1.6-1.5-2.6-2s-2.1-0.7-3.3-0.7H3.9V216H21c1.2,0,2.4-0.3,3.4-0.8c1.1-0.5,2-1.2,2.8-2.1c0.8-0.8,1.4-1.8,1.9-2.9
		C29.6,209,29.8,207.9,29.8,206.8z"/>
	<path d="M39.2,217v-39.4h16c1.6,0,3.1,0.3,4.4,1c1.4,0.7,2.5,1.6,3.5,2.7c1,1.1,1.7,2.4,2.3,3.8c0.6,1.4,0.8,2.9,0.8,4.4
		s-0.2,3-0.7,4.4s-1.2,2.7-2.1,3.7c-0.9,1.1-1.9,2-3.2,2.7c-1.2,0.7-2.6,1.1-4.1,1.2l10,15.5h-1.3l-10-15.5H40.3V217H39.2z
		 M40.3,200.4h15.3c1.5,0,2.8-0.3,4-0.9c1.2-0.6,2.2-1.5,3-2.5s1.5-2.2,1.9-3.5s0.7-2.6,0.7-4s-0.3-2.8-0.8-4
		c-0.5-1.3-1.2-2.4-2.1-3.4s-2-1.8-3.2-2.4c-1.2-0.6-2.5-0.9-3.9-0.9H40.3V200.4z"/>
	<path d="M100.6,215.9v1.1H74.7v-39.4H100v1.1H75.9v17.6h21.2v1.1H75.9v18.5L100.6,215.9L100.6,215.9z"/>
	<path d="M121.7,177.6h1l17.1,39.4h-1.2l-6.2-14.1h-20.6l-6.2,14.1h-1.2L121.7,177.6z M131.9,201.8l-9.8-22.6l-9.9,22.6H131.9z"/>
	<path d="M146.3,217v-39.4h1.1v25.6l25.1-25.6h1.6l-16.8,17.2l17.6,22.2h-1.4l-17-21.4l-9,9.1V217H146.3z"/>
	<path d="M0,253c0-2.4,0.4-4.7,1.2-7s2-4.4,3.6-6.3c1.6-1.9,3.5-3.4,5.8-4.5c2.3-1.2,4.9-1.7,7.9-1.7c3.5,0,6.5,0.8,8.9,2.4
		c2.4,1.6,4.2,3.7,5.4,6.2l-1.1,0.3c-0.8-1.4-1.7-2.7-2.7-3.7s-2.1-1.8-3.3-2.4c-1.2-0.6-2.4-1.1-3.7-1.3c-1.3-0.3-2.5-0.4-3.8-0.4
		c-2.7,0-5.2,0.5-7.3,1.6s-4,2.5-5.4,4.3c-1.5,1.8-2.6,3.8-3.4,6S1,251,1,253.2c0,2.5,0.5,4.9,1.4,7.2s2.1,4.3,3.7,6.1
		c1.6,1.8,3.4,3.2,5.5,4.2s4.4,1.6,6.8,1.6c1.3,0,2.6-0.2,4-0.5s2.7-0.8,4-1.5s2.5-1.5,3.5-2.6c1.1-1.1,2-2.3,2.8-3.7l1.1,0.3
		c-0.7,1.5-1.6,2.8-2.7,3.9c-1.1,1.1-2.4,2.1-3.8,2.9s-2.9,1.4-4.5,1.7c-1.6,0.4-3.1,0.6-4.6,0.6c-2.7,0-5.1-0.6-7.4-1.8
		c-2.3-1.2-4.2-2.7-5.8-4.6s-2.9-4.1-3.8-6.5C0.5,258,0,255.5,0,253z"/>
	<path d="M41.5,273v-39.4h16c1.6,0,3.1,0.3,4.4,1c1.4,0.7,2.5,1.6,3.5,2.7c1,1.1,1.7,2.4,2.3,3.8c0.6,1.4,0.8,2.9,0.8,4.4
		s-0.2,3-0.7,4.4s-1.2,2.7-2.1,3.7c-0.9,1.1-1.9,2-3.2,2.7c-1.2,0.7-2.6,1.1-4.1,1.2l10,15.5h-1.3l-10-15.5H42.6V273H41.5z
		 M42.6,256.4h15.3c1.5,0,2.8-0.3,4-0.9s2.2-1.5,3-2.5s1.5-2.2,1.9-3.5s0.7-2.6,0.7-4s-0.3-2.8-0.8-4c-0.5-1.3-1.2-2.4-2.1-3.4
		s-2-1.8-3.2-2.4c-1.2-0.6-2.5-0.9-3.9-0.9H42.6V256.4z"/>
	<path d="M102.9,271.9v1.1H77.1v-39.4h25.3v1.1H78.2v17.6h21.2v1.1H78.2v18.5L102.9,271.9L102.9,271.9z"/>
	<path d="M124,233.6h1l17.1,39.4h-1.2l-6.2-14.1h-20.6L108,273h-1.2L124,233.6z M134.2,257.8l-9.8-22.6l-9.9,22.6H134.2z"/>
	<path d="M171.6,234.7h-15.1V273h-1.1v-38.3h-15.1v-1.1h31.3L171.6,234.7L171.6,234.7z"/>
	<path d="M203.9,271.9v1.1H178v-39.4h25.3v1.1h-24.2v17.6h21.2v1.1h-21.2v18.5L203.9,271.9L203.9,271.9z"/>
</g>
</svg>
